<svg width="111" height="49" viewBox="0 0 111 49" fill="none" xmlns="http://www.w3.org/2000/svg">
<path d="M106.114 0H4.88641C2.18772 0 0 2.18772 0 4.88641V43.3745C0 46.0732 2.18772 48.2609 4.88641 48.2609H106.114C108.812 48.2609 111 46.0732 111 43.3745V4.88641C111 2.18772 108.812 0 106.114 0Z" fill="#1D1D1B"/>
<path d="M8.82571 24.6432H8.28278V5.57413H9.2118L16.8973 23.9374L24.5829 5.57413H25.4576V24.6492H24.9147V6.78065C24.9147 6.65396 24.7397 6.61777 24.6915 6.73842L17.205 24.6492H16.6078L8.8981 6.26788C8.88 6.22565 8.81968 6.23771 8.81968 6.28598V24.6432H8.82571Z" fill="white" stroke="white" stroke-width="0.5" stroke-miterlimit="10"/>
<path d="M45.691 24.6432L45.5523 21.0478C44.6232 23.5272 42.6083 25.0534 40.1832 25.0534C36.7205 25.0534 34.1084 21.9768 34.1084 17.8626C34.1084 13.7483 36.7266 10.6174 40.1832 10.6174C42.6083 10.6174 44.6232 12.1437 45.5523 14.6231L45.691 11.0276H46.1012V24.6492H45.691V24.6432ZM40.1893 24.5045C43.3504 24.5045 45.5583 21.7536 45.5583 17.8565C45.5583 13.9595 43.3262 11.1543 40.1893 11.1543C37.0523 11.1543 34.6574 13.9896 34.6574 17.8565C34.6574 21.7234 37.0282 24.5045 40.1893 24.5045Z" fill="white" stroke="white" stroke-width="0.5" stroke-miterlimit="10"/>
<path d="M61.2792 10.6114C64.929 10.6114 67.517 13.6096 67.517 17.8565C67.517 22.1035 64.929 25.0474 61.2792 25.0474C57.6295 25.0474 55.0958 21.9708 55.0958 17.8565C55.0958 13.7423 57.714 10.6114 61.2792 10.6114ZM61.2792 24.5105C64.6575 24.5105 66.974 21.7838 66.974 17.8626C66.974 13.9414 64.6334 11.1603 61.2792 11.1603C57.9251 11.1603 55.6388 14.0198 55.6388 17.8626C55.6388 21.7053 58.0639 24.5105 61.2792 24.5105Z" fill="white" stroke="white" stroke-width="0.5" stroke-miterlimit="10"/>
<path d="M83.4853 11.1603C79.3952 11.1603 77.0545 14.6472 77.0545 20.7763V24.6432H76.5116V11.0216H76.9218L77.0606 16.1976C78.0439 12.6021 80.2759 10.6114 83.4913 10.6114V11.1543L83.4853 11.1603Z" fill="white" stroke="white" stroke-width="0.5" stroke-miterlimit="10"/>
<path d="M96.6726 10.6114C100.322 10.6114 102.91 13.6096 102.91 17.8565C102.91 22.1035 100.322 25.0474 96.6726 25.0474C93.0228 25.0474 90.4891 21.9708 90.4891 17.8565C90.4891 13.7423 93.1073 10.6114 96.6726 10.6114ZM96.6726 24.5105C100.051 24.5105 102.367 21.7838 102.367 17.8626C102.367 13.9414 100.027 11.1603 96.6726 11.1603C93.3184 11.1603 91.0321 14.0198 91.0321 17.8626C91.0321 21.7053 93.4572 24.5105 96.6726 24.5105Z" fill="white" stroke="white" stroke-width="0.5" stroke-miterlimit="10"/>
<path d="M11.3775 39.8635C9.62807 39.8635 8.37932 39.1818 8.18628 37.6133H8.51204C8.74128 38.9103 9.67633 39.5377 11.3775 39.5377C12.6745 39.5377 13.676 38.6811 13.676 37.6133C13.676 34.6332 8.46378 36.7084 8.46378 33.4508C8.46378 32.2382 9.61601 31.2791 11.0699 31.2791C12.7409 31.2791 13.8569 32.1719 13.9535 33.674H13.6277C13.5613 32.5399 12.7228 31.5988 11.0699 31.5988C9.80905 31.5988 8.78351 32.4252 8.78351 33.4448C8.78351 36.3464 13.9836 34.223 13.9836 37.6073C13.9836 38.9043 12.8676 39.8574 11.3775 39.8574V39.8635Z" fill="white" stroke="white" stroke-width="0.5" stroke-miterlimit="10"/>
<path d="M21.0659 35.8276C21.0659 38.5966 21.6993 39.5377 23.5574 39.5377V39.8635C21.5003 39.8635 20.7402 38.7474 20.7402 35.8276V31.8461H18.683V31.5204H20.7402V29.7106H21.0659V31.5264H23.5574V31.8521H21.0659V35.8337V35.8276Z" fill="white" stroke="white" stroke-width="0.5" stroke-miterlimit="10"/>
<path d="M35.3693 31.5204H35.695V39.6161H35.4537L35.3873 37.5409C34.8504 38.9525 33.7223 39.8574 32.2926 39.8574C30.2838 39.8574 28.9083 38.1381 28.9083 35.6648V31.5204H29.2341V35.6648C29.2341 37.9632 30.4647 39.5377 32.2926 39.5377C34.1205 39.5377 35.3693 37.9511 35.3693 35.6648V31.5204Z" fill="white" stroke="white" stroke-width="0.5" stroke-miterlimit="10"/>
<path d="M47.9171 39.6221L47.8387 37.4866C47.2897 38.9586 46.0892 39.8695 44.6474 39.8695C42.5903 39.8695 41.0339 38.0416 41.0339 35.5924C41.0339 33.1431 42.5903 31.2851 44.6474 31.2851C46.0892 31.2851 47.2897 32.19 47.8387 33.668V28.2929H48.1644V39.6282H47.9231L47.9171 39.6221ZM44.6474 39.5437C46.5236 39.5437 47.8387 37.9089 47.8387 35.5924C47.8387 33.2758 46.5115 31.6108 44.6474 31.6108C42.7833 31.6108 41.3596 33.2939 41.3596 35.5924C41.3596 37.8908 42.7713 39.5437 44.6474 39.5437Z" fill="white" stroke="white" stroke-width="0.5" stroke-miterlimit="10"/>
<path d="M54.4926 28.0396C54.7038 28.0396 54.8304 28.1843 54.8304 28.3774C54.8304 28.5885 54.7038 28.7152 54.4926 28.7152C54.2815 28.7152 54.1548 28.5885 54.1548 28.3774C54.1548 28.1843 54.2815 28.0396 54.4926 28.0396ZM54.3297 39.6222V31.5264H54.6555V39.6222H54.3297Z" fill="white" stroke="white" stroke-width="0.5" stroke-miterlimit="10"/>
<path d="M63.8552 31.2791C66.0269 31.2791 67.5652 33.0587 67.5652 35.5863C67.5652 38.114 66.0269 39.8635 63.8552 39.8635C61.6835 39.8635 60.1813 38.0356 60.1813 35.5863C60.1813 33.1371 61.7377 31.2791 63.8552 31.2791ZM63.8552 39.5377C65.8641 39.5377 67.2395 37.921 67.2395 35.5863C67.2395 33.2517 65.846 31.6048 63.8552 31.6048C61.8644 31.6048 60.5011 33.306 60.5011 35.5863C60.5011 37.8667 61.9429 39.5377 63.8552 39.5377Z" fill="white" stroke="white" stroke-width="0.5" stroke-miterlimit="10"/>
</svg>
